<svg xmlns="http://www.w3.org/2000/svg" xmlns:svg="http://www.w3.org/2000/svg" xmlns:xlink="http://www.w3.org/1999/xlink" id="svg8" width="330.547" height="330.547" version="1.1" viewBox="0 0 87.457 87.457"><defs id="defs2"><linearGradient id="linearGradient823"><stop id="stop819" offset="0" style="stop-color:#858585;stop-opacity:1"/><stop id="stop821" offset="1" style="stop-color:#fff;stop-opacity:1"/></linearGradient><linearGradient id="linearGradient825" x1="26.563" x2="114.02" y1="75.434" y2="75.434" gradientTransform="translate(-26.563299,-31.704975)" gradientUnits="userSpaceOnUse" xlink:href="#linearGradient823"/></defs><metadata id="metadata5"/><rect style="opacity:1;fill:#fff;fill-opacity:1;fill-rule:evenodd;stroke:#000;stroke-width:.02645833;stroke-miterlimit:4;stroke-dasharray:none;stroke-dashoffset:0;stroke-opacity:1" id="rect4562" width="84.667" height="84.667" x="1.323" y="1.468"/><rect style="opacity:1;fill:none;fill-opacity:1;fill-rule:evenodd;stroke:#000;stroke-width:3.00011039;stroke-miterlimit:4;stroke-dasharray:none;stroke-dashoffset:0;stroke-opacity:1" id="rect817" width="84.457" height="84.457" x="1.5" y="1.5"/><path style="fill:#000;fill-opacity:1;fill-rule:evenodd;stroke:#000;stroke-width:.99999994px;stroke-linecap:butt;stroke-linejoin:miter;stroke-opacity:1" id="path4559" d="M 325 5.546875 L 256.86719 73.679688 A 130 130 0 0 1 295 165.54688 A 130 130 0 0 1 165 295.54688 A 130 130 0 0 1 73.132812 257.41406 L 5.6699219 324.87695 L 325 325.54688 L 325 5.546875 z M 73.132812 257.41406 L 256.86719 73.679688 A 130 130 0 0 0 165 35.546875 A 130 130 0 0 0 35 165.54688 A 130 130 0 0 0 73.132812 257.41406 z" transform="scale(0.26458333)"/></svg>
