<svg xmlns="http://www.w3.org/2000/svg" xmlns:xlink="http://www.w3.org/1999/xlink" width="48" height="48"><defs><linearGradient id="c"><stop offset="0" stop-color="#fff"/><stop offset="1" stop-color="#fff" stop-opacity="0"/></linearGradient><linearGradient id="h" x1="15.929" x2="51.53" y1="9.07" y2="64.25" gradientUnits="userSpaceOnUse" xlink:href="#c"/><linearGradient id="b" x1="27.427" x2="15.76" y1="30.842" y2="13.171" gradientUnits="userSpaceOnUse" xlink:href="#c"/><radialGradient id="e" cx="25.842" cy="26.961" r="10.421" gradientUnits="userSpaceOnUse"><stop offset="0" stop-color="#fff" stop-opacity="0"/><stop offset="1" stop-opacity=".349"/></radialGradient><radialGradient id="i" cx="13" cy="13" r="7.6" gradientUnits="userSpaceOnUse"><stop offset="0" stop-color="#3c3c3c"/><stop offset=".363" stop-color="#3e3e3e"/><stop offset=".494" stop-color="#454545"/><stop offset=".588" stop-color="#505050"/><stop offset=".663" stop-color="#616161"/><stop offset=".728" stop-color="#777"/><stop offset=".785" stop-color="#939393"/><stop offset=".835" stop-color="#b2b2b2"/><stop offset=".876" stop-color="#d2d2d2"/><stop offset=".9" stop-color="#cecece"/><stop offset=".922" stop-color="#c3c3c3"/><stop offset=".945" stop-color="#afafaf"/><stop offset=".967" stop-color="#949494"/><stop offset=".988" stop-color="#717171"/><stop offset="1" stop-color="#5b5b5b"/></radialGradient><radialGradient id="g" cx="22.81" cy="23.357" r="25.59" gradientUnits="userSpaceOnUse"><stop offset="0" stop-color="#210101"/><stop offset=".5" stop-color="#ff747e"/><stop offset="1" stop-color="#830000"/></radialGradient><radialGradient id="l" cx="8.824" cy="3.756" r="37.752" gradientTransform="matrix(.9683 0 0 1.0328 1.354-1.354)" gradientUnits="userSpaceOnUse"><stop offset="0" stop-color="#a3a3a3"/><stop offset="1" stop-color="#4c4c4c"/></radialGradient><radialGradient id="d" cx="24.307" cy="42.08" r="15.822" gradientTransform="matrix(1 0 0 .2849-2.275 29.14)" gradientUnits="userSpaceOnUse"><stop offset="0"/><stop offset="1" stop-opacity="0"/></radialGradient><radialGradient id="k" cx="33.967" cy="35.737" r="86.71" gradientTransform="matrix(.9605 0 0 1.0411-2-2)" gradientUnits="userSpaceOnUse"><stop offset="0" stop-color="#fafafa"/><stop offset="1" stop-color="#bbb"/></radialGradient><radialGradient id="f" cx="22.904" cy="23.1" r="19.828" gradientUnits="userSpaceOnUse"><stop offset="0" stop-color="#c5c5c5"/><stop offset=".237" stop-color="#c8c8c8"/><stop offset=".408" stop-color="#d1d1d1"/><stop offset=".559" stop-color="#e1e1e1"/><stop offset=".696" stop-color="#f7f7f7"/><stop offset=".736" stop-color="#fff"/><stop offset=".819" stop-color="#fcfcfc"/><stop offset=".881" stop-color="#f2f2f2"/><stop offset=".936" stop-color="#e2e2e2"/><stop offset=".988" stop-color="#ccc"/><stop offset="1" stop-color="#c5c5c5"/></radialGradient><radialGradient id="j" cx="8.144" cy="7.268" r="38.16" gradientTransform="matrix(.9683 0 0 1.0328 1.354-1.354)" gradientUnits="userSpaceOnUse"><stop offset="0" stop-color="#fff"/><stop offset="1" stop-color="#f8f8f8"/></radialGradient></defs><ellipse id="m" cx="22" cy="41.1" fill="url(#d)" opacity=".75" rx="15.822" ry="4.5"/><use x="8" y="2.36" opacity=".75" xlink:href="#m"/><g stroke-linecap="round" stroke-linejoin="round"><rect width="34.875" height="40.92" x="4.604" y="1.646" fill="url(#k)" stroke="url(#l)" rx="1.149"/><rect width="32.776" height="38.946" x="5.666" y="2.584" fill="none" stroke="url(#j)" rx=".149"/></g><g fill="#9b9b9b" fill-opacity=".55" transform="matrix(.9091 0 0 1 .364-2)"><rect width="22" height="1" x="15" y="9" rx=".152" ry=".065"/><rect width="22" height="1" x="15" y="13" rx=".152" ry=".065"/><rect width="22" height="1" x="15" y="17" rx=".152" ry=".065"/><rect width="22" height="1" x="15" y="21" rx=".152" ry=".065"/><rect width="9.9" height="1" x="15" y="25" rx=".068" ry=".065"/></g><g fill="none" transform="matrix(.8595 0 0 .8595 9.08 8.03)"><circle id="a" cx="13.417" cy="13.246" r="7" stroke="url(#i)" stroke-width="1.7"/><use x="21" y=".1" xlink:href="#a"/><use y="21.5" xlink:href="#a"/><use x="21.1" y="21.5" xlink:href="#a"/><circle cx="24" cy="24" r="13.22" stroke="url(#f)" stroke-width="11"/><path fill="url(#g)" d="m15.1 7.56l5.388 9.379c-1.796 0.998-2.594 1.733-3.486 3.361l-9.685-4.558c1.197-2.993 4.989-6.984 7.783-8.181m25.17 7.571l-9.287 5.335c-1.019-1.716-1.872-2.444-3.359-3.359l4.545-9.682c2.964 1.186 6.916 4.94 8.101 7.706m-7.379 25.26l-5.423-9.426c1.631-0.916 2.47-1.786 3.466-3.463l9.837 4.612c-1.212 3.03-5.253 7.07-7.879 8.277m-25.372-7.6l9.347-5.388c0.998 1.796 1.733 2.438 3.392 3.486l-4.558 9.684c-2.993-1.197-6.984-5.188-8.181-7.782"/><circle cx="24" cy="24" r="8.3" stroke="url(#b)"/><circle cx="24" cy="24" r="18.1" stroke="url(#h)"/><g stroke="#606060" stroke-width=".88"><circle cx="24" cy="24" r="7.5" fill="url(#e)"/><circle cx="24" cy="24" r="19"/></g></g></svg>